<?xml version="1.0" encoding="iso-8859-1"?>
<!-- Generator: Adobe Illustrator 19.0.0, SVG Export Plug-In . SVG Version: 6.00 Build 0)  -->
<svg version="1.1" id="Layer_1" xmlns="http://www.w3.org/2000/svg" xmlns:xlink="http://www.w3.org/1999/xlink" x="0px" y="0px"
	 viewBox="0 0 512.011 512.011" style="enable-background:new 0 0 512.011 512.011;" xml:space="preserve">
<circle style="fill:#F7B239;" cx="262.546" cy="256.006" r="249.465"/>
<g>
	<path style="fill:#E09B2D;" d="M131.475,387.071C41.734,297.331,34.663,156.229,110.254,58.39
		c-8.372,6.47-16.43,13.542-24.111,21.221c-97.42,97.42-97.42,255.371,0,352.791s255.371,97.42,352.791,0
		c7.679-7.679,14.751-15.737,21.221-24.111C362.317,483.883,221.216,476.812,131.475,387.071z"/>
	<path style="fill:#E09B2D;" d="M284.891,417.672c-1.345,0-2.71-0.295-4.003-0.917c-13.317-6.407-27.392-6.407-40.71,0
		c-4.601,2.214-10.127,0.279-12.341-4.322c-2.214-4.601-0.279-10.127,4.322-12.341c18.562-8.932,38.185-8.932,56.745,0
		c4.601,2.214,6.537,7.74,4.322,12.341C291.637,415.741,288.333,417.672,284.891,417.672z"/>
</g>
<path style="fill:#2BA5F7;" d="M17.238,202.394L17.238,202.394c-22.984-22.984-22.984-60.246,0-83.229l41.615-41.615l41.615,41.615
	c22.983,22.983,22.983,60.246,0,83.229l0,0C77.484,225.378,40.221,225.378,17.238,202.394z"/>
<path style="fill:#2197D8;" d="M46.825,202.394L46.825,202.394c-22.983-22.983-22.983-60.246,0-83.229l26.822-26.822L58.852,77.551
	l-41.615,41.615c-22.983,22.984-22.983,60.246,0,83.229l0,0c15.287,15.287,36.889,20.392,56.409,15.343
	C63.82,215.195,54.52,210.09,46.825,202.394z"/>
<g>
	<path style="fill:#4D4D4D;" d="M339.474,300.101c-4.886,1.484-7.645,6.649-6.161,11.534c1.484,4.887,6.654,7.644,11.534,6.161
		c23.948-7.275,49.305-1.572,67.832,15.255c1.772,1.609,3.996,2.402,6.214,2.402c2.516,0,5.023-1.021,6.848-3.03
		c3.433-3.78,3.151-9.628-0.629-13.062C401.723,298.116,369.706,290.919,339.474,300.101z"/>
	<path style="fill:#4D4D4D;" d="M191.765,311.635c1.484-4.886-1.274-10.05-6.16-11.534c-30.232-9.183-62.249-1.985-85.639,19.259
		c-3.78,3.433-4.061,9.281-0.629,13.062c1.825,2.01,4.332,3.03,6.848,3.03c2.217,0,4.443-0.794,6.214-2.402
		c18.526-16.826,43.883-22.529,67.832-15.255C185.115,319.278,190.281,316.521,191.765,311.635z"/>
	<path style="fill:#4D4D4D;" d="M262.54,355.834C262.539,355.834,262.541,355.834,262.54,355.834
		c-30.218,0-58.546,13.645-79.757,38.418c-3.321,3.879-2.87,9.716,1.01,13.037c3.879,3.321,9.715,2.87,13.037-1.01
		c17.643-20.604,40.98-31.953,65.712-31.953c24.731,0,48.067,11.348,65.71,31.953c1.828,2.135,4.42,3.233,7.027,3.233
		c2.128,0,4.267-0.73,6.01-2.223c3.879-3.321,4.331-9.158,1.01-13.037C321.084,369.478,292.759,355.834,262.54,355.834z"/>
</g>
<g>
</g>
<g>
</g>
<g>
</g>
<g>
</g>
<g>
</g>
<g>
</g>
<g>
</g>
<g>
</g>
<g>
</g>
<g>
</g>
<g>
</g>
<g>
</g>
<g>
</g>
<g>
</g>
<g>
</g>
</svg>
