<?xml version="1.0" encoding="iso-8859-1"?>
<!-- Generator: Adobe Illustrator 19.0.0, SVG Export Plug-In . SVG Version: 6.00 Build 0)  -->
<svg version="1.1" id="Layer_1" xmlns="http://www.w3.org/2000/svg" xmlns:xlink="http://www.w3.org/1999/xlink" x="0px" y="0px"
	 viewBox="0 0 512.009 512.009" style="enable-background:new 0 0 512.009 512.009;" xml:space="preserve">
<path style="fill:#FFFFFF;" d="M256.004,41.111c-0.62,0-1.253-0.063-1.86-0.177c-0.607-0.127-1.202-0.304-1.771-0.544
	c-0.569-0.24-1.126-0.531-1.645-0.873c-0.519-0.342-0.999-0.746-1.442-1.177c-1.759-1.771-2.771-4.213-2.771-6.705
	c0-0.62,0.063-1.253,0.19-1.86c0.114-0.607,0.304-1.202,0.531-1.771c0.24-0.582,0.531-1.126,0.873-1.645s0.746-0.999,1.177-1.442
	c0.443-0.43,0.924-0.835,1.442-1.177s1.075-0.633,1.645-0.873c0.569-0.24,1.164-0.418,1.771-0.544
	c3.087-0.62,6.364,0.392,8.565,2.594c0.443,0.443,0.835,0.924,1.177,1.442c0.342,0.519,0.633,1.063,0.873,1.645
	c0.24,0.569,0.418,1.164,0.544,1.771c0.127,0.607,0.19,1.24,0.19,1.86c0,0.607-0.063,1.24-0.19,1.847s-0.304,1.202-0.544,1.771
	c-0.24,0.582-0.531,1.126-0.873,1.645c-0.342,0.519-0.734,0.999-1.177,1.442C260.939,40.099,258.496,41.111,256.004,41.111z"/>
<circle style="fill:#F7B239;" cx="256.004" cy="256.004" r="256.004"/>
<path style="fill:#E09B2D;" d="M121.499,390.501C29.407,298.407,22.15,153.608,99.723,53.204
	c-8.593,6.638-16.861,13.895-24.743,21.777c-99.974,99.974-99.974,262.065,0,362.038s262.065,99.974,362.038,0
	c7.881-7.881,15.138-16.15,21.777-24.743C358.392,489.85,213.593,482.593,121.499,390.501z"/>
<path style="fill:#FFFFFF;" d="M126.955,310.12h258.092c0,14.486-2.391,28.415-6.794,41.421H133.749
	C129.346,338.536,126.955,324.606,126.955,310.12z"/>
<path style="fill:#A81004;" d="M133.749,351.542h244.504c-8.679,25.632-25.189,47.633-46.684,63.182
	c-9.033-15.22-25.632-25.417-44.622-25.417c-11.602,0-22.305,3.808-30.946,10.248c-8.641-6.44-19.357-10.248-30.958-10.248
	c-18.977,0-35.589,10.197-44.609,25.417C158.938,399.175,142.428,377.174,133.749,351.542z"/>
<path style="fill:#F95428;" d="M286.946,389.306c18.99,0,35.589,10.197,44.622,25.417c-21.242,15.384-47.355,24.443-75.568,24.443
	c-28.213,0-54.326-9.059-75.568-24.443c9.021-15.22,25.632-25.417,44.609-25.417c11.601,0,22.317,3.808,30.958,10.248
	C264.642,393.115,275.345,389.306,286.946,389.306z"/>
<g>
	<path style="fill:#4D4D4D;" d="M137.769,230.369c-5.24,0-9.489,4.248-9.489,9.489s4.248,9.489,9.489,9.489h14.639v23.379
		c0,5.24,4.248,9.489,9.489,9.489s9.489-4.248,9.489-9.489v-24.75c13.934-4.104,24.139-17.005,24.139-32.251
		s-10.203-28.147-24.139-32.251v-30.66h14.651c5.24,0,9.489-4.248,9.489-9.489c0-5.24-4.248-9.489-9.489-9.489h-14.651v-23.374
		c0-5.24-4.248-9.489-9.489-9.489s-9.489,4.248-9.489,9.489v24.748c-13.929,4.108-24.128,17.006-24.128,32.249
		c0,15.243,10.198,28.14,24.128,32.248v30.664H137.769z M176.548,215.724c0,4.458-2.009,8.451-5.162,11.138v-22.278
		C174.538,207.273,176.548,211.266,176.548,215.724z M147.258,167.457c0-4.453,2.004-8.441,5.15-11.13v22.258
		C149.262,175.899,147.258,171.911,147.258,167.457z"/>
	<path style="fill:#4D4D4D;" d="M385.288,152.812c5.24,0,9.489-4.248,9.489-9.489s-4.248-9.489-9.489-9.489h-14.651v-23.374
		c0-5.24-4.248-9.489-9.489-9.489c-5.24,0-9.489,4.248-9.489,9.489v24.748c-13.929,4.108-24.128,17.006-24.128,32.249
		c0,15.243,10.198,28.14,24.128,32.248v30.664h-14.639c-5.24,0-9.489,4.248-9.489,9.489s4.248,9.489,9.489,9.489h14.639v23.379
		c0,5.24,4.248,9.489,9.489,9.489c5.24,0,9.489-4.248,9.489-9.489v-24.75c13.934-4.105,24.139-17.005,24.139-32.251
		s-10.203-28.147-24.139-32.251v-30.66C370.638,152.812,385.288,152.812,385.288,152.812z M346.51,167.457
		c0-4.453,2.004-8.441,5.15-11.13v22.259C348.515,175.899,346.51,171.911,346.51,167.457z M375.8,215.724
		c0,4.458-2.009,8.45-5.162,11.138v-22.277C373.792,207.273,375.8,211.266,375.8,215.724z"/>
</g>
<g>
</g>
<g>
</g>
<g>
</g>
<g>
</g>
<g>
</g>
<g>
</g>
<g>
</g>
<g>
</g>
<g>
</g>
<g>
</g>
<g>
</g>
<g>
</g>
<g>
</g>
<g>
</g>
<g>
</g>
</svg>
