<?xml version="1.0" encoding="iso-8859-1"?>
<!-- Generator: Adobe Illustrator 19.0.0, SVG Export Plug-In . SVG Version: 6.00 Build 0)  -->
<svg version="1.1" id="Layer_1" xmlns="http://www.w3.org/2000/svg" xmlns:xlink="http://www.w3.org/1999/xlink" x="0px" y="0px"
	 viewBox="0 0 512.009 512.009" style="enable-background:new 0 0 512.009 512.009;" xml:space="preserve">
<circle style="fill:#F7B239;" cx="256.004" cy="256.004" r="256.004"/>
<path style="fill:#E09B2D;" d="M121.499,390.501C29.407,298.407,22.15,153.608,99.723,53.204
	c-8.593,6.638-16.861,13.895-24.743,21.777c-99.974,99.974-99.974,262.065,0,362.038s262.065,99.974,362.038,0
	c7.881-7.881,15.138-16.15,21.777-24.743C358.392,489.85,213.593,482.593,121.499,390.501z"/>
<g>
	<path style="fill:#4D4D4D;" d="M142.674,207.94c-19.358,0-35.107,15.749-35.107,35.107s15.749,35.107,35.107,35.107
		s35.107-15.749,35.107-35.107S162.031,207.94,142.674,207.94z"/>
	<path style="fill:#4D4D4D;" d="M369.327,207.94c-19.358,0-35.107,15.749-35.107,35.107s15.749,35.107,35.107,35.107
		s35.107-15.749,35.107-35.107S388.684,207.94,369.327,207.94z"/>
	<path style="fill:#4D4D4D;" d="M322.128,310.042c-2.72-4.477-8.556-5.905-13.036-3.183l-53.092,32.254l-53.092-32.254
		c-4.479-2.72-10.315-1.296-13.036,3.183s-1.296,10.315,3.183,13.036l44.67,27.138l-44.67,27.138
		c-4.479,2.72-5.904,8.558-3.183,13.036c1.785,2.939,4.913,4.563,8.119,4.563c1.679,0,3.378-0.445,4.918-1.38l53.092-32.254
		l53.092,32.254c1.54,0.935,3.239,1.38,4.918,1.38c3.205,0,6.333-1.624,8.118-4.563c2.721-4.479,1.296-10.315-3.183-13.036
		l-44.67-27.138l44.67-27.138C323.423,320.358,324.849,314.52,322.128,310.042z"/>
</g>
<g>
</g>
<g>
</g>
<g>
</g>
<g>
</g>
<g>
</g>
<g>
</g>
<g>
</g>
<g>
</g>
<g>
</g>
<g>
</g>
<g>
</g>
<g>
</g>
<g>
</g>
<g>
</g>
<g>
</g>
</svg>
