<?xml version="1.0" encoding="iso-8859-1"?>
<!-- Generator: Adobe Illustrator 19.0.0, SVG Export Plug-In . SVG Version: 6.00 Build 0)  -->
<svg version="1.1" id="Layer_1" xmlns="http://www.w3.org/2000/svg" xmlns:xlink="http://www.w3.org/1999/xlink" x="0px" y="0px"
	 viewBox="0 0 512.009 512.009" style="enable-background:new 0 0 512.009 512.009;" xml:space="preserve">
<circle style="fill:#F7B239;" cx="256.004" cy="256.004" r="256.004"/>
<g>
	<path style="fill:#E09B2D;" d="M121.499,390.501C29.407,298.407,22.15,153.608,99.723,53.204
		c-8.593,6.638-16.861,13.895-24.743,21.777c-99.974,99.974-99.974,262.065,0,362.038s262.065,99.974,362.038,0
		c7.881-7.881,15.138-16.15,21.777-24.743C358.392,489.85,213.593,482.593,121.499,390.501z"/>
	<path style="fill:#E09B2D;" d="M213.081,370.406c-4.147,0-7.957-2.74-9.132-6.929c-1.414-5.045,1.53-10.283,6.575-11.699
		c29.749-8.34,61.199-8.341,90.951,0c5.045,1.414,7.989,6.652,6.575,11.699c-1.416,5.044-6.652,7.991-11.698,6.575
		c-26.401-7.402-54.307-7.401-80.706,0C214.792,370.291,213.929,370.406,213.081,370.406z"/>
</g>
<g>
	<path style="fill:#4D4D4D;" d="M261.185,301.833c-53.687,0-104.159,20.907-142.121,58.869c-3.706,3.706-3.706,9.714,0,13.418
		c3.706,3.704,9.713,3.707,13.42,0c34.377-34.377,80.084-53.31,128.702-53.31s94.325,18.933,128.702,53.31
		c1.853,1.852,4.281,2.78,6.71,2.78c2.428,0,4.857-0.926,6.71-2.78c3.706-3.706,3.706-9.714,0-13.418
		C365.344,322.74,314.871,301.833,261.185,301.833z"/>
	<path style="fill:#4D4D4D;" d="M107.567,250.383c0,19.358,15.749,35.107,35.107,35.107s35.107-15.749,35.107-35.107
		c0-4.059-0.701-7.957-1.974-11.586c3.792,0.39,7.754,0.611,11.906,0.611c10.99,0,23.242-1.495,36.755-5.169
		c5.056-1.375,8.04-6.589,6.666-11.647c-1.376-5.058-6.598-8.04-11.647-6.666c-67.265,18.297-96.426-24.419-97.717-26.375
		c-2.845-4.38-8.699-5.64-13.094-2.81c-4.407,2.836-5.678,8.708-2.842,13.115c0.316,0.493,6.677,10.214,19.755,19.873
		C114.848,225.741,107.567,237.224,107.567,250.383z"/>
	<path style="fill:#4D4D4D;" d="M403.324,186.741c-4.405-2.836-10.279-1.565-13.113,2.842c-0.29,0.45-29.775,44.818-97.697,26.343
		c-5.052-1.371-10.271,1.608-11.647,6.666c-1.375,5.057,1.609,10.271,6.666,11.647c13.516,3.675,25.764,5.169,36.755,5.169
		c4.151,0,8.113-0.221,11.905-0.611c-1.273,3.63-1.974,7.526-1.974,11.586c0,19.358,15.749,35.107,35.107,35.107
		s35.107-15.749,35.107-35.107c0-13.159-7.281-24.643-18.022-30.653c13.078-9.659,19.439-19.381,19.755-19.873
		C409.002,195.45,407.731,189.577,403.324,186.741z"/>
</g>
<g>
</g>
<g>
</g>
<g>
</g>
<g>
</g>
<g>
</g>
<g>
</g>
<g>
</g>
<g>
</g>
<g>
</g>
<g>
</g>
<g>
</g>
<g>
</g>
<g>
</g>
<g>
</g>
<g>
</g>
</svg>
