<?xml version="1.0" encoding="iso-8859-1"?>
<!-- Generator: Adobe Illustrator 19.0.0, SVG Export Plug-In . SVG Version: 6.00 Build 0)  -->
<svg version="1.1" id="Layer_1" xmlns="http://www.w3.org/2000/svg" xmlns:xlink="http://www.w3.org/1999/xlink" x="0px" y="0px"
	 viewBox="0 0 512.009 512.009" style="enable-background:new 0 0 512.009 512.009;" xml:space="preserve">
<circle style="fill:#F7B239;" cx="256.004" cy="256.004" r="256.004"/>
<path style="fill:#E09B2D;" d="M121.499,390.501C29.407,298.407,22.15,153.608,99.723,53.204
	c-8.593,6.638-16.861,13.895-24.743,21.777c-99.974,99.974-99.974,262.065,0,362.038s262.065,99.974,362.038,0
	c7.881-7.881,15.138-16.15,21.777-24.743C358.392,489.85,213.593,482.593,121.499,390.501z"/>
<g>
	<path style="fill:#4D4D4D;" d="M197.171,244.322H83.943c-5.242,0-9.489-4.248-9.489-9.489s4.247-9.489,9.489-9.489h113.228
		c5.242,0,9.489,4.248,9.489,9.489S202.411,244.322,197.171,244.322z"/>
	<path style="fill:#4D4D4D;" d="M428.058,244.322H314.83c-5.242,0-9.489-4.248-9.489-9.489s4.247-9.489,9.489-9.489h113.228
		c5.242,0,9.489,4.248,9.489,9.489S433.298,244.322,428.058,244.322z"/>
</g>
<g>
	<path style="fill:#E09B2D;" d="M197.171,278.481h-66.837c-5.242,0-9.489-4.248-9.489-9.489c0-5.24,4.247-9.489,9.489-9.489h66.837
		c5.242,0,9.489,4.248,9.489,9.489C206.66,274.233,202.411,278.481,197.171,278.481z"/>
	<path style="fill:#E09B2D;" d="M381.667,278.481H314.83c-5.242,0-9.489-4.248-9.489-9.489c0-5.24,4.247-9.489,9.489-9.489h66.837
		c5.242,0,9.489,4.248,9.489,9.489C391.156,274.233,386.908,278.481,381.667,278.481z"/>
</g>
<path style="fill:#4D4D4D;" d="M376.823,351.86H135.178c-5.242,0-9.489-4.248-9.489-9.489c0-5.24,4.247-9.489,9.489-9.489h241.645
	c5.242,0,9.489,4.248,9.489,9.489C386.312,347.612,382.063,351.86,376.823,351.86z"/>
<path style="fill:#E09B2D;" d="M300.285,387.285h-88.569c-5.242,0-9.489-4.248-9.489-9.489c0-5.24,4.247-9.489,9.489-9.489h88.569
	c5.242,0,9.489,4.248,9.489,9.489C309.774,383.036,305.525,387.285,300.285,387.285z"/>
<g>
</g>
<g>
</g>
<g>
</g>
<g>
</g>
<g>
</g>
<g>
</g>
<g>
</g>
<g>
</g>
<g>
</g>
<g>
</g>
<g>
</g>
<g>
</g>
<g>
</g>
<g>
</g>
<g>
</g>
</svg>
