<?xml version="1.0" encoding="iso-8859-1"?>
<!-- Generator: Adobe Illustrator 19.0.0, SVG Export Plug-In . SVG Version: 6.00 Build 0)  -->
<svg version="1.1" id="Layer_1" xmlns="http://www.w3.org/2000/svg" xmlns:xlink="http://www.w3.org/1999/xlink" x="0px" y="0px"
	 viewBox="0 0 512.009 512.009" style="enable-background:new 0 0 512.009 512.009;" xml:space="preserve">
<circle style="fill:#F7B239;" cx="256.004" cy="256.004" r="256.004"/>
<path style="fill:#E09B2D;" d="M121.499,390.501C29.407,298.407,22.15,153.608,99.723,53.204
	c-8.593,6.638-16.861,13.895-24.743,21.777c-99.974,99.974-99.974,262.065,0,362.038s262.065,99.974,362.038,0
	c7.881-7.881,15.138-16.15,21.777-24.743C358.392,489.85,213.593,482.593,121.499,390.501z"/>
<g>
	<path style="fill:#4D4D4D;" d="M364.002,178.597C363.999,178.597,364.002,178.597,364.002,178.597
		c-23.456,0-44.641-12.022-56.671-32.156c-2.687-4.499-1.22-10.325,3.279-13.012c4.499-2.686,10.325-1.22,13.012,3.279
		c8.571,14.347,23.666,22.912,40.379,22.913c16.714,0,31.81-8.566,40.381-22.913c2.688-4.5,8.518-5.965,13.012-3.279
		c4.499,2.688,5.966,8.513,3.279,13.012C408.643,166.574,387.456,178.597,364.002,178.597z"/>
	<path style="fill:#4D4D4D;" d="M147.999,178.597c-23.456,0-44.641-12.022-56.673-32.156c-2.687-4.499-1.22-10.325,3.279-13.012
		c4.501-2.686,10.326-1.22,13.012,3.279c8.571,14.347,23.667,22.913,40.381,22.913c16.713,0,31.807-8.566,40.379-22.913
		c2.688-4.499,8.513-5.966,13.012-3.279c4.499,2.687,5.966,8.513,3.279,13.012C192.64,166.574,171.455,178.596,147.999,178.597z"/>
	<path style="fill:#4D4D4D;" d="M120.588,296.34c-2.428,0-4.857-0.926-6.71-2.78c-3.706-3.706-3.706-9.714,0-13.418
		c78.365-78.364,205.875-78.366,284.243,0c3.706,3.706,3.706,9.714,0,13.418c-3.707,3.706-9.714,3.706-13.42,0
		c-70.965-70.966-186.437-70.966-257.402,0C125.445,295.414,123.016,296.34,120.588,296.34z"/>
</g>
<path style="fill:#E09B2D;" d="M298.92,284.252c-0.848,0-1.711-0.114-2.566-0.354c-26.401-7.402-54.309-7.401-80.706,0
	c-5.042,1.413-10.282-1.53-11.698-6.575c-1.414-5.047,1.53-10.283,6.575-11.699c29.749-8.34,61.199-8.341,90.951,0
	c5.045,1.414,7.989,6.652,6.575,11.698C306.876,281.511,303.067,284.252,298.92,284.252z"/>
<g>
</g>
<g>
</g>
<g>
</g>
<g>
</g>
<g>
</g>
<g>
</g>
<g>
</g>
<g>
</g>
<g>
</g>
<g>
</g>
<g>
</g>
<g>
</g>
<g>
</g>
<g>
</g>
<g>
</g>
</svg>
