<?xml version="1.0" encoding="iso-8859-1"?>
<!-- Generator: Adobe Illustrator 19.0.0, SVG Export Plug-In . SVG Version: 6.00 Build 0)  -->
<svg version="1.1" id="Layer_1" xmlns="http://www.w3.org/2000/svg" xmlns:xlink="http://www.w3.org/1999/xlink" x="0px" y="0px"
	 viewBox="0 0 512.009 512.009" style="enable-background:new 0 0 512.009 512.009;" xml:space="preserve">
<circle style="fill:#F7B239;" cx="256.004" cy="256.004" r="256.004"/>
<path style="fill:#E09B2D;" d="M121.499,390.501C29.407,298.407,22.15,153.608,99.723,53.204
	c-8.593,6.638-16.861,13.895-24.743,21.777c-99.974,99.974-99.974,262.065,0,362.038s262.065,99.974,362.038,0
	c7.881-7.881,15.138-16.15,21.777-24.743C358.392,489.85,213.593,482.593,121.499,390.501z"/>
<path style="fill:#A81004;" d="M391.414,359.135H332.61c-0.329-0.62-0.683-1.227-1.037-1.822
	c-9.033-15.22-25.632-25.417-44.622-25.417c-11.602,0-22.305,3.808-30.946,10.248c-8.641-6.44-19.357-10.248-30.958-10.248
	c-18.977,0-35.589,10.197-44.609,25.417c-0.354,0.595-0.708,1.202-1.037,1.822h-58.804
	C195.378,284.352,316.631,284.352,391.414,359.135z"/>
<path style="fill:#F95428;" d="M332.61,359.135h-153.21c0.329-0.62,0.683-1.227,1.037-1.822
	c9.021-15.22,25.632-25.417,44.609-25.417c11.601,0,22.317,3.808,30.958,10.248c8.641-6.44,19.344-10.248,30.946-10.248
	c18.99,0,35.589,10.197,44.622,25.417C331.926,357.908,332.281,358.515,332.61,359.135z"/>
<path style="fill:#E09B2D;" d="M288.895,406.895h-65.788c-5.24,0-9.489-4.248-9.489-9.489c0-5.24,4.248-9.489,9.489-9.489h65.788
	c5.242,0,9.489,4.248,9.489,9.489C298.383,402.646,294.135,406.895,288.895,406.895z"/>
<g>
	<path style="fill:#4D4D4D;" d="M147.998,115.51c16.713,0,31.809,8.566,40.38,22.913c1.776,2.974,4.925,4.623,8.155,4.623
		c1.656,0,3.332-0.434,4.857-1.345c4.499-2.688,5.966-8.513,3.279-13.012c-12.03-20.136-33.215-32.156-56.671-32.156
		s-44.641,12.022-56.671,32.156c-2.688,4.499-1.22,10.325,3.279,13.012c4.501,2.69,10.326,1.22,13.012-3.279
		C116.189,124.076,131.285,115.51,147.998,115.51z"/>
	<path style="fill:#4D4D4D;" d="M364.002,96.533C364.001,96.533,364.003,96.533,364.002,96.533
		c-23.455,0-44.642,12.023-56.673,32.156c-2.687,4.499-1.22,10.325,3.279,13.012c1.525,0.911,3.201,1.345,4.858,1.345
		c3.229,0,6.378-1.65,8.154-4.623c8.571-14.347,23.667-22.913,40.381-22.913c16.713,0,31.807,8.566,40.379,22.913
		c2.688,4.499,8.514,5.966,13.012,3.279c4.499-2.688,5.966-8.513,3.279-13.012C408.642,108.556,387.457,96.534,364.002,96.533z"/>
	<path style="fill:#4D4D4D;" d="M142.674,268.675c19.358,0,35.107-15.749,35.107-35.107s-15.749-35.107-35.107-35.107
		s-35.107,15.749-35.107,35.107S123.316,268.675,142.674,268.675z"/>
	<path style="fill:#4D4D4D;" d="M369.326,198.46c-19.358,0-35.107,15.749-35.107,35.107s15.749,35.107,35.107,35.107
		s35.107-15.749,35.107-35.107S388.684,198.46,369.326,198.46z"/>
</g>
<g>
</g>
<g>
</g>
<g>
</g>
<g>
</g>
<g>
</g>
<g>
</g>
<g>
</g>
<g>
</g>
<g>
</g>
<g>
</g>
<g>
</g>
<g>
</g>
<g>
</g>
<g>
</g>
<g>
</g>
</svg>
