<?xml version="1.0" encoding="iso-8859-1"?>
<!-- Generator: Adobe Illustrator 19.0.0, SVG Export Plug-In . SVG Version: 6.00 Build 0)  -->
<svg version="1.1" id="Layer_1" xmlns="http://www.w3.org/2000/svg" xmlns:xlink="http://www.w3.org/1999/xlink" x="0px" y="0px"
	 viewBox="0 0 512.009 512.009" style="enable-background:new 0 0 512.009 512.009;" xml:space="preserve">
<circle style="fill:#F7B239;" cx="256.004" cy="256.004" r="256.004"/>
<path style="fill:#E09B2D;" d="M121.499,390.501C29.407,298.407,22.15,153.608,99.723,53.204
	c-8.593,6.638-16.861,13.895-24.743,21.777c-99.974,99.974-99.974,262.065,0,362.038s262.065,99.974,362.038,0
	c7.881-7.881,15.138-16.15,21.777-24.743C358.392,489.85,213.593,482.593,121.499,390.501z"/>
<path style="fill:#A81004;" d="M354.85,392.257c0,18.104-8.464,24.316-22.545,25.569c-0.24-0.645-0.481-1.29-0.734-1.91
	c-9.033-22.849-25.632-38.144-44.622-38.144c-11.601,0-22.305,5.718-30.946,15.372c-8.641-9.653-19.357-15.372-30.958-15.372
	c-18.977,0-35.589,15.296-44.609,38.144c-0.253,0.62-0.493,1.265-0.734,1.91c-14.081-1.252-22.545-7.464-22.545-25.569
	c0-41.396,44.255-74.961,98.847-74.961S354.85,350.861,354.85,392.257z"/>
<path style="fill:#F95428;" d="M331.571,415.915c0.253,0.62,0.493,1.265,0.734,1.91c-18.13,1.619-45.584-4.959-76.302-4.959
	s-58.172,6.579-76.302,4.959c0.24-0.645,0.481-1.29,0.734-1.91c9.021-22.849,25.632-38.144,44.609-38.144
	c11.601,0,22.317,5.719,30.958,15.372c8.641-9.653,19.344-15.372,30.946-15.372C305.94,377.771,322.538,393.066,331.571,415.915z"/>
<g>
	<path style="fill:#4D4D4D;" d="M177.781,255.193c0-19.358-15.749-35.107-35.107-35.107s-35.107,15.749-35.107,35.107
		s15.749,35.107,35.107,35.107S177.781,274.552,177.781,255.193z"/>
	<path style="fill:#4D4D4D;" d="M369.327,220.087c-19.358,0-35.107,15.749-35.107,35.107s15.749,35.107,35.107,35.107
		s35.107-15.749,35.107-35.107S388.684,220.087,369.327,220.087z"/>
	<path style="fill:#4D4D4D;" d="M369.327,144.611c-23.456,0-44.641,12.022-56.671,32.156c-2.688,4.499-1.22,10.325,3.279,13.012
		c4.501,2.688,10.325,1.22,13.012-3.279c8.571-14.347,23.667-22.913,40.38-22.913c16.713,0,31.809,8.566,40.38,22.913
		c1.776,2.974,4.925,4.623,8.155,4.623c1.656,0,3.332-0.434,4.857-1.345c4.499-2.688,5.966-8.513,3.279-13.012
		C413.968,156.631,392.782,144.611,369.327,144.611z"/>
	<path style="fill:#4D4D4D;" d="M142.674,163.589c16.713,0,31.809,8.566,40.38,22.913c1.776,2.974,4.925,4.623,8.155,4.623
		c1.656,0,3.332-0.434,4.857-1.345c4.499-2.688,5.966-8.513,3.279-13.012c-12.03-20.136-33.215-32.156-56.671-32.156
		s-44.641,12.022-56.671,32.156c-2.688,4.499-1.22,10.325,3.279,13.012c4.503,2.688,10.326,1.22,13.012-3.279
		C110.866,172.154,125.962,163.589,142.674,163.589z"/>
</g>
<g>
</g>
<g>
</g>
<g>
</g>
<g>
</g>
<g>
</g>
<g>
</g>
<g>
</g>
<g>
</g>
<g>
</g>
<g>
</g>
<g>
</g>
<g>
</g>
<g>
</g>
<g>
</g>
<g>
</g>
</svg>
