<?xml version="1.0" encoding="iso-8859-1"?>
<!-- Generator: Adobe Illustrator 19.0.0, SVG Export Plug-In . SVG Version: 6.00 Build 0)  -->
<svg version="1.1" id="Layer_1" xmlns="http://www.w3.org/2000/svg" xmlns:xlink="http://www.w3.org/1999/xlink" x="0px" y="0px"
	 viewBox="0 0 512.009 512.009" style="enable-background:new 0 0 512.009 512.009;" xml:space="preserve">
<circle style="fill:#F7B239;" cx="256.004" cy="256.004" r="256.004"/>
<path style="fill:#E09B2D;" d="M121.499,390.501C29.407,298.407,22.15,153.608,99.723,53.204
	c-8.593,6.638-16.861,13.895-24.743,21.777c-99.974,99.974-99.974,262.065,0,362.038s262.065,99.974,362.038,0
	c7.881-7.881,15.138-16.15,21.777-24.743C358.392,489.85,213.593,482.593,121.499,390.501z"/>
<path style="fill:#A81004;" d="M254.288,404.049L254.288,404.049c-34.586,0-62.623-28.037-62.623-62.621v-49.339
	c0-34.586,28.037-62.621,62.621-62.621l0,0c34.586,0,62.621,28.037,62.621,62.621v49.339
	C316.91,376.012,288.873,404.049,254.288,404.049z"/>
<g>
	
		<ellipse transform="matrix(0.7071 -0.7071 0.7071 0.7071 -104.3721 151.5529)" style="fill:#FFFFFF;" cx="130.755" cy="201.765" rx="70.241" ry="55.704"/>
	
		<ellipse transform="matrix(0.7071 0.7071 -0.7071 0.7071 254.3351 -210.4868)" style="fill:#FFFFFF;" cx="381.248" cy="201.766" rx="70.241" ry="55.704"/>
</g>
<path style="fill:#F95428;" d="M270.224,338.045c4.744-2.151,9.78-3.315,15.005-3.315c11.652,0,22.406,5.756,31.06,15.486
	c-4.264,30.427-30.402,53.832-62.005,53.832s-57.729-23.418-61.993-53.845c8.654-9.716,19.395-15.473,31.034-15.473
	c5.225,0,10.273,1.164,15.017,3.315C248.526,342.663,260.04,342.65,270.224,338.045z"/>
<path style="fill:#FFFFFF;" d="M308.217,260.25c-13.929,13.562-32.957,21.913-53.934,21.913c-20.964,0-39.992-8.35-53.921-21.9
	c10.893-18.433,30.958-30.794,53.921-30.794c17.295,0,32.945,7.009,44.28,18.345C302.284,251.533,305.523,255.708,308.217,260.25z"
	/>
<g>
</g>
<g>
</g>
<g>
</g>
<g>
</g>
<g>
</g>
<g>
</g>
<g>
</g>
<g>
</g>
<g>
</g>
<g>
</g>
<g>
</g>
<g>
</g>
<g>
</g>
<g>
</g>
<g>
</g>
</svg>
