<?xml version="1.0" encoding="iso-8859-1"?>
<!-- Generator: Adobe Illustrator 19.0.0, SVG Export Plug-In . SVG Version: 6.00 Build 0)  -->
<svg version="1.1" id="Layer_1" xmlns="http://www.w3.org/2000/svg" xmlns:xlink="http://www.w3.org/1999/xlink" x="0px" y="0px"
	 viewBox="0 0 512.009 512.009" style="enable-background:new 0 0 512.009 512.009;" xml:space="preserve">
<circle style="fill:#F7B239;" cx="256.004" cy="256.004" r="256.004"/>
<path style="fill:#E09B2D;" d="M121.499,390.501C29.407,298.407,22.15,153.608,99.723,53.204
	c-8.593,6.638-16.861,13.895-24.743,21.777c-99.974,99.974-99.974,262.065,0,362.038s262.065,99.974,362.038,0
	c7.881-7.881,15.138-16.15,21.777-24.743C358.392,489.85,213.593,482.593,121.499,390.501z"/>
<path style="fill:#FFFFFF;" d="M126.955,269.352h258.092c0,14.486-2.391,28.415-6.794,41.421H133.749
	C129.346,297.767,126.955,283.838,126.955,269.352z"/>
<path style="fill:#A81004;" d="M133.749,310.773h244.504c-8.679,25.632-25.189,47.633-46.684,63.182
	c-9.033-15.22-25.632-25.417-44.622-25.417c-11.602,0-22.305,3.808-30.946,10.248c-8.641-6.44-19.357-10.248-30.958-10.248
	c-18.977,0-35.589,10.197-44.609,25.417C158.938,358.406,142.428,336.405,133.749,310.773z"/>
<path style="fill:#F95428;" d="M332.606,375.777c-0.329-0.62-0.683-1.227-1.037-1.822c-9.033-15.22-25.632-25.417-44.622-25.417
	c-11.602,0-22.305,3.808-30.946,10.248c-8.641-6.44-19.357-10.248-30.958-10.248c-18.977,0-35.589,10.197-44.609,25.417
	c-0.354,0.595-0.708,1.202-1.037,1.822v6.414c0,42.308,34.297,76.605,76.605,76.605l0,0c42.308,0,76.605-34.297,76.605-76.605
	L332.606,375.777L332.606,375.777z"/>
<path style="fill:#E54728;" d="M331.568,373.955c-9.033-15.22-25.632-25.417-44.622-25.417c-11.602,0-22.305,3.808-30.946,10.248
	c-8.641-6.44-19.357-10.248-30.958-10.248c-18.977,0-35.589,10.197-44.609,25.417c-0.354,0.595-0.708,1.202-1.037,1.822v6.414
	c0,7.137,0.997,14.037,2.823,20.59c9.328-13.656,25.036-22.615,42.824-22.615c11.601,0,22.317,3.808,30.958,10.248
	c8.641-6.44,19.344-10.248,30.946-10.248c17.801,0,33.5,8.96,42.837,22.617c1.826-6.555,2.823-13.455,2.823-20.593v-6.414
	C332.277,375.157,331.923,374.55,331.568,373.955z"/>
<g>
	<path style="fill:#4D4D4D;" d="M366.799,166.633c-19.358,0-35.107,15.749-35.107,35.107s15.749,35.107,35.107,35.107
		s35.107-15.749,35.107-35.107S386.157,166.633,366.799,166.633z"/>
	<path style="fill:#4D4D4D;" d="M127.728,218.274c7.001-11.718,19.33-18.714,32.98-18.714c13.65,0,25.979,6.995,32.98,18.714
		c1.778,2.974,4.925,4.624,8.155,4.623c1.655,0,3.332-0.434,4.857-1.345c4.499-2.688,5.966-8.513,3.279-13.012
		c-10.459-17.506-28.878-27.957-49.272-27.957s-38.812,10.451-49.272,27.957c-2.688,4.499-1.22,10.325,3.279,13.012
		C119.216,224.241,125.04,222.773,127.728,218.274z"/>
</g>
<g>
</g>
<g>
</g>
<g>
</g>
<g>
</g>
<g>
</g>
<g>
</g>
<g>
</g>
<g>
</g>
<g>
</g>
<g>
</g>
<g>
</g>
<g>
</g>
<g>
</g>
<g>
</g>
<g>
</g>
</svg>
